{
	"asset":{
		"generator":"Khronos glTF Blender I/O v3.6.28",
		"version":"2.0"
	},
	"extensionsUsed":[
		"KHR_materials_specular",
		"KHR_materials_ior"
	],
	"scene":0,
	"scenes":[
		{
			"name":"Scene",
			"nodes":[
				0
			]
		}
	],
	"nodes":[
		{
			"mesh":0,
			"name":"Grid"
		}
	],
	"materials":[
		{
			"doubleSided":true,
			"extensions":{
				"KHR_materials_specular":{
					"specularColorFactor":[
						1.142563184677125,
						1.142563184677125,
						1.142563184677125
					]
				},
				"KHR_materials_ior":{
					"ior":1.4500000476837158
				}
			},
			"name":"MaterialBase",
			"pbrMetallicRoughness":{
				"baseColorTexture":{
					"index":0
				},
				"metallicFactor":0.9636363983154297,
				"roughnessFactor":0.5
			}
		}
	],
	"meshes":[
		{
			"name":"Grid.001",
			"primitives":[
				{
					"attributes":{
						"COLOR_0":0,
						"POSITION":1,
						"NORMAL":2,
						"TEXCOORD_0":3
					},
					"indices":4,
					"material":0
				}
			]
		}
	],
	"textures":[
		{
			"sampler":0,
			"source":0
		}
	],
	"images":[
		{
			"bufferView":5,
			"mimeType":"image/png",
			"name":"pmbfloor-B"
		}
	],
	"accessors":[
		{
			"bufferView":0,
			"componentType":5123,
			"count":920,
			"normalized":true,
			"type":"VEC4"
		},
		{
			"bufferView":1,
			"componentType":5126,
			"count":920,
			"max":[
				9,
				4.149668216705322,
				9
			],
			"min":[
				-9,
				0,
				-9
			],
			"type":"VEC3"
		},
		{
			"bufferView":2,
			"componentType":5126,
			"count":920,
			"type":"VEC3"
		},
		{
			"bufferView":3,
			"componentType":5126,
			"count":920,
			"type":"VEC2"
		},
		{
			"bufferView":4,
			"componentType":5123,
			"count":1518,
			"type":"SCALAR"
		}
	],
	"bufferViews":[
		{
			"buffer":0,
			"byteLength":7360,
			"byteOffset":0,
			"target":34962
		},
		{
			"buffer":0,
			"byteLength":11040,
			"byteOffset":7360,
			"target":34962
		},
		{
			"buffer":0,
			"byteLength":11040,
			"byteOffset":18400,
			"target":34962
		},
		{
			"buffer":0,
			"byteLength":7360,
			"byteOffset":29440,
			"target":34962
		},
		{
			"buffer":0,
			"byteLength":3036,
			"byteOffset":36800,
			"target":34963
		},
		{
			"buffer":0,
			"byteLength":99365,
			"byteOffset":39836
		}
	],
	"samplers":[
		{
			"magFilter":9729,
			"minFilter":9987
		}
	],
	"buffers":[
		{
			"byteLength":139204,
			"uri":"data:application/octet-stream;base64,"
		}
	]
}
